# xmcd
#
# Track frame offsets: 
#        150
#        18874
#        32475
#        44601
#        61695
#        78083
#        89205
#        108800
#        124549
#        143260
#        162167
#
# Disc length: 2389 seconds
#
# Revision: 0
# Processed by: cddbd v1.5.2PL0 Copyright (c) Steve Scherf et al.
# Submitted via: ExactAudioCopy v0.95b4
#
DISCID=7809530b
DTITLE=Paul and Laurel Schultes - A Fast Trip to Nashville - 1989
DYEAR=1989
DGENRE=Classic Country
TTITLE0=The Blizzard
TTITLE1=I'm So Lonesome I Could Cry
TTITLE2=The Auctioneer
TTITLE3=My Woman, My Woman, My Wife
TTITLE4=Can't Help Falling in Love
TTITLE5=Folsom Prison Blues
TTITLE6=Love Me Tender
TTITLE7=Misty Blue
TTITLE8=Don't Worry About Me
TTITLE9=You Gave Me a Mountain
TTITLE10=Streets of Laredo
EXTD=
EXTT0=
EXTT1=
EXTT2=
EXTT3=
EXTT4=
EXTT5=
EXTT6=
EXTT7=
EXTT8=
EXTT9=
EXTT10=
PLAYORDER=
